<?xml version="1.0" encoding="utf-8"?>
<!-- Generator: Adobe Illustrator 18.0.0, SVG Export Plug-In . SVG Version: 6.00 Build 0)  -->
<!DOCTYPE svg PUBLIC "-//W3C//DTD SVG 1.1//EN" "http://www.w3.org/Graphics/SVG/1.1/DTD/svg11.dtd">
<svg version="1.1" id="Layer_1" xmlns="http://www.w3.org/2000/svg" xmlns:xlink="http://www.w3.org/1999/xlink" x="0px" y="0px"
	 viewBox="0 0 672.2 792" enable-background="new 0 0 672.2 792" xml:space="preserve">
<g>
	<path fill="none" stroke="#000000" stroke-width="3" stroke-linecap="round" stroke-linejoin="round" stroke-miterlimit="10" d="
		M251.9,332c-3.4,3.2-5.6,7.8-5.8,13c-0.5,15.5-0.8,39.6,1.1,65.9c2.3,20.9-4.5,49.5-9.3,48.9C223.5,457.7,187,348.2,251.9,332z"/>
	<path fill="none" stroke="#000000" stroke-width="3" stroke-linecap="round" stroke-linejoin="round" stroke-miterlimit="10" d="
		M259.3,327.8l0,0.2c-0.3,0.1-0.6,0.1-0.8,0.2C259,327.9,259.3,327.8,259.3,327.8z"/>
	<path fill="none" stroke="#000000" stroke-width="3" stroke-linecap="round" stroke-linejoin="round" stroke-miterlimit="10" d="
		M392.4,366.4c0.1,63-8.3,180.5-72.7,182v0c-0.2,0-0.4,0-0.6,0c-0.2,0-0.4,0-0.6,0v0c-51.1-1.2-67-75.4-71.3-137.5
		c-1.8-26.3-1.6-50.4-1.1-65.9c0.2-5.2,2.4-9.8,5.8-13c0,0,0,0,0,0c3-2,5.4-3.2,6.6-3.8c0.3-0.1,0.6-0.2,0.8-0.2
		c1.2-0.3,2.5-0.5,3.8-0.5h112c1.8,0,3.5,0.3,5.1,0.8c10.1-20.3,56-107.3,86.5-79.8C475.8,255.6,407.9,346.1,392.4,366.4z"/>
	<path fill="none" stroke="#000000" stroke-width="3" stroke-linecap="round" stroke-linejoin="round" stroke-miterlimit="10" d="
		M258.4,328.2c-1.2,0.6-3.6,1.8-6.6,3.8C253.8,330.3,256,329,258.4,328.2z"/>
	<path fill="none" stroke="#000000" stroke-width="3" stroke-linecap="round" stroke-linejoin="round" stroke-miterlimit="10" d="
		M400.5,243.4c-2.7,9.8-7.7,18.6-14.3,25.7c-10.3,11-24.4,17.9-40,17.9h-51.3c-24,0-44.7-16.2-52.9-39c0.2-0.3,0.3-0.7,0.4-1
		c2.4-7.5,6.2-33.6,0.9-45.9c2.8-6.6,6.8-12.6,11.5-17.7c10.3-11,24.4-17.8,40-17.8h51.3c20.7,0,38.9,12,48.7,29.9
		c-3.7,13.2-0.4,36.2,1.9,43.1C397.4,240.2,398.7,241.9,400.5,243.4z"/>
	<path fill="none" stroke="#000000" stroke-width="3" stroke-linecap="round" stroke-linejoin="round" stroke-miterlimit="10" d="
		M242.5,247c-0.1,0.3-0.2,0.7-0.4,1c-4,8.2-24.5,16.1-30.8-7c-5.6-36.5,23.3-46.5,23.3-46.5c4.3-0.2,7.1,2.4,8.9,6.6
		C248.6,213.4,244.9,239.6,242.5,247z"/>
	<path fill="none" stroke="#000000" stroke-width="3" stroke-linecap="round" stroke-linejoin="round" stroke-miterlimit="10" d="
		M428.1,232.5c-5.2,19.2-20.3,16.9-27.6,10.9c-1.8-1.5-3.1-3.2-3.7-4.9c-2.3-6.9-5.6-30-1.9-43.1c1.6-5.8,4.7-9.7,9.8-9.4
		C404.8,186,433.7,196,428.1,232.5z"/>
	<path fill="none" stroke="#000000" stroke-width="3" stroke-linecap="round" stroke-linejoin="round" stroke-miterlimit="10" d="
		M234.5,194.5c0,0-5.6-70.5,86.7-70.5s83.5,62,83.5,62"/>
	<path fill="none" stroke="#000000" stroke-width="3" stroke-linecap="round" stroke-linejoin="round" stroke-miterlimit="10" d="
		M273.2,214.5c0,0,6.5-11.5,20-11.5c13.5,0,18.2,12,18.2,12"/>
	<path fill="none" stroke="#000000" stroke-width="3" stroke-linecap="round" stroke-linejoin="round" stroke-miterlimit="10" d="
		M411.2,231c0,0-14.5,18.5-47.1,20.5"/>
	<ellipse fill="none" stroke="#000000" stroke-width="6" stroke-miterlimit="10" cx="364.4" cy="252.7" rx="3.7" ry="4"/>
	<path fill="none" stroke="#000000" stroke-width="3" stroke-linecap="round" stroke-linejoin="round" stroke-miterlimit="10" d="
		M329.7,215.5c0,0,6.5-11.5,20-11.5c13.5,0,18.2,12,18.2,12"/>
	<g>
		
			<line fill="none" stroke="#000000" stroke-width="3" stroke-linecap="round" stroke-linejoin="round" stroke-miterlimit="10" x1="251.3" y1="532.5" x2="251.3" y2="640.5"/>
		
			<line fill="none" stroke="#000000" stroke-width="3" stroke-linecap="round" stroke-linejoin="round" stroke-miterlimit="10" x1="251.3" y1="672.5" x2="251.3" y2="694.5"/>
		
			<line fill="none" stroke="#000000" stroke-width="5" stroke-linecap="round" stroke-linejoin="round" stroke-miterlimit="10" x1="285.8" y1="567.5" x2="285.8" y2="598.5"/>
		
			<line fill="none" stroke="#000000" stroke-width="5" stroke-linecap="round" stroke-linejoin="round" stroke-miterlimit="10" x1="284" y1="688.5" x2="284" y2="717.5"/>
		
			<line fill="none" stroke="#000000" stroke-width="5" stroke-linecap="round" stroke-linejoin="round" stroke-miterlimit="10" x1="283" y1="765.5" x2="283" y2="789.5"/>
		
			<line fill="none" stroke="#000000" stroke-width="3" stroke-linecap="round" stroke-linejoin="round" stroke-miterlimit="10" x1="315.7" y1="577.5" x2="315.7" y2="676.5"/>
		
			<line fill="none" stroke="#000000" stroke-width="3" stroke-linecap="round" stroke-linejoin="round" stroke-miterlimit="10" x1="314.7" y1="715.5" x2="314.7" y2="738.5"/>
		
			<line fill="none" stroke="#000000" stroke-width="5" stroke-linecap="round" stroke-linejoin="round" stroke-miterlimit="10" x1="354.8" y1="548.5" x2="354.8" y2="651.5"/>
		
			<line fill="none" stroke="#000000" stroke-width="5" stroke-linecap="round" stroke-linejoin="round" stroke-miterlimit="10" x1="350.2" y1="678.5" x2="350.2" y2="706.5"/>
		
			<line fill="none" stroke="#000000" stroke-width="3" stroke-linecap="round" stroke-linejoin="round" stroke-miterlimit="10" x1="384.7" y1="520.5" x2="384.7" y2="585.5"/>
		
			<line fill="none" stroke="#000000" stroke-width="3" stroke-linecap="round" stroke-linejoin="round" stroke-miterlimit="10" x1="382.8" y1="607.5" x2="382.8" y2="641.5"/>
	</g>
	<g>
		<path fill="none" stroke="#000000" stroke-width="3" stroke-linecap="round" stroke-linejoin="round" stroke-miterlimit="10" d="
			M13.4,419.2C5.6,390.4,1.5,360,1.5,328.5c0-28.3,3.3-55.7,9.6-81.8"/>
		<path fill="none" stroke="#000000" stroke-width="3" stroke-linecap="round" stroke-linejoin="round" stroke-miterlimit="10" d="
			M181.5,626.9C128,601.1,82.7,559.2,50.9,507"/>
		<path fill="none" stroke="#000000" stroke-width="3" stroke-linecap="round" stroke-linejoin="round" stroke-miterlimit="10" d="
			M194.6,24.2C229.2,9.5,266.9,1.5,306.4,1.5c168.4,0,304.9,146.4,304.9,327c0,130.2-70.9,242.6-173.6,295.2"/>
		<path fill="none" stroke="#000000" stroke-width="6" stroke-linecap="round" stroke-linejoin="round" stroke-miterlimit="10" d="
			M592.2,90.9c48.2,65.3,77,147.8,77,237.6c0,50.7-9.2,99-25.8,143.3"/>
		<path fill="none" stroke="#000000" stroke-width="6" stroke-linecap="round" stroke-linejoin="round" stroke-miterlimit="10" d="
			M147.2,517.9c-21.6-20.9-39.5-45.9-52.8-73.9"/>
		<path fill="none" stroke="#000000" stroke-width="6" stroke-linecap="round" stroke-linejoin="round" stroke-miterlimit="10" d="
			M69.9,355.4c-0.9-8.8-1.3-17.8-1.3-26.9c0-122.2,80.1-224.3,187.1-249.2"/>
	</g>
	
		<polygon fill="none" stroke="#000000" stroke-width="3" stroke-linecap="round" stroke-linejoin="round" stroke-miterlimit="10" points="
		352.4,377.8 352.4,406.9 332.1,406.9 332.1,427.1 303.1,427.1 303.1,406.9 282.9,406.9 282.9,377.8 303.1,377.8 303.1,357.6 
		332.1,357.6 332.1,377.8 	"/>
	<path fill="none" stroke="#000000" stroke-linecap="round" stroke-linejoin="round" stroke-miterlimit="10" d="M383.8,382.3
		c0,0,0,135.3-50.7,152.7"/>
</g>
<line fill="none" stroke="#000000" stroke-linecap="round" stroke-linejoin="round" stroke-miterlimit="10" x1="345.6" y1="382.2" x2="345.6" y2="401.2"/>
<line fill="none" stroke="#000000" stroke-linecap="round" stroke-linejoin="round" stroke-miterlimit="10" x1="324.9" y1="361.8" x2="324.9" y2="375.5"/>
<line fill="none" stroke="#000000" stroke-linecap="round" stroke-linejoin="round" stroke-miterlimit="10" x1="325.2" y1="407.5" x2="325.2" y2="423.8"/>
<path fill="none" stroke="#000000" stroke-linecap="round" stroke-linejoin="round" stroke-miterlimit="10" d="M457.5,249
	c0,0,4.8,3.8,1.3,10.3S426.5,307,426.5,307"/>
<path fill="none" stroke="#000000" stroke-linecap="round" stroke-linejoin="round" stroke-miterlimit="10" d="M240.3,389.5
	c0,0,3.5,45.5-3,61"/>
<path fill="none" stroke="#000000" stroke-linecap="round" stroke-linejoin="round" stroke-miterlimit="10" d="M414,201
	c0,0,16,13.5,9,32"/>
<path fill="none" stroke="#000000" stroke-linecap="round" stroke-linejoin="round" stroke-miterlimit="10" d="M237.5,204
	c0,0,6.5,29-1,39"/>
</svg>
